HIERARCHY
ROOT pelvis
{
  OFFSET 0 100 0
  CHANNELS 6 Xposition Yposition Zposition Zrotation Xrotation Yrotation
  JOINT pelvis_right_femur
  {
    OFFSET -10.78128 -3.44521 -0.5502486
    CHANNELS 3 Zrotation Xrotation Yrotation
    JOINT right_femur_tibia
    {
      OFFSET -0.8047443 -44.0398 -0.1307829
      CHANNELS 3 Zrotation Xrotation Yrotation
      JOINT right_tibia_foot
      {
        OFFSET 3.006224 -47.83518 -5
        CHANNELS 3 Zrotation Xrotation Yrotation
        End Site
        {
          OFFSET 0 -5 15
        }
      }
    }
  }
  JOINT pelvis_left_femur
  {
    OFFSET 10.78128 -3.44521 -0.5502486
    CHANNELS 3 Zrotation Xrotation Yrotation
    JOINT left_femur_tibia
    {
      OFFSET 0.8047443 -44.0398 -0.1307829
      CHANNELS 3 Zrotation Xrotation Yrotation
      JOINT left_tibia_foot
      {
        OFFSET -4.370144 -48.10324 -4.275266
        CHANNELS 3 Zrotation Xrotation Yrotation
        End Site
        {
          OFFSET 0 -5 15
        }
      }
    }
  }
  JOINT pelvis_spine1
  {
    OFFSET 0 6.468898 -3.129235
    CHANNELS 3 Zrotation Xrotation Yrotation
    JOINT spine1
    {
      OFFSET 0 23.15396 4.99043
      CHANNELS 3 Zrotation Xrotation Yrotation
      JOINT spine2
      {
        OFFSET 0 20.79997 -5.064912
        CHANNELS 3 Zrotation Xrotation Yrotation
        JOINT neck
        {
          OFFSET 0 14.38658 9.616178
          CHANNELS 3 Zrotation Xrotation Yrotation
          End Site
          {
            OFFSET 0 20 0
          }
        }
      }
      JOINT right_manubrium
      {
        OFFSET -5.722621 16.35077 3.967754
        CHANNELS 3 Zrotation Xrotation Yrotation
        JOINT right_clavicle
        {
          OFFSET -13.16364 1.694482 -4.693211
          CHANNELS 3 Zrotation Xrotation Yrotation
          JOINT right_humerus
          {
            OFFSET -28.5034 -0.3100689 -2.792744
            CHANNELS 3 Zrotation Xrotation Yrotation
            JOINT right_radius
            {
              OFFSET -25.15693 0.02248979 -1.271978
              CHANNELS 3 Zrotation Xrotation Yrotation
              End Site
              {
                OFFSET -15 0 0
              }
            }
          }
        }
      }
      JOINT left_manubrium
      {
        OFFSET 5.722621 16.35077 3.967754
        CHANNELS 3 Zrotation Xrotation Yrotation
        JOINT left_clavicle
        {
          OFFSET 13.16364 1.694482 -4.693211
          CHANNELS 3 Zrotation Xrotation Yrotation
          JOINT left_humerus
          {
            OFFSET 29.39168 -1.063119 -2.237045
            CHANNELS 3 Zrotation Xrotation Yrotation
            JOINT left_radius
            {
              OFFSET 24.59957 -0.9528479 0.9047498
              CHANNELS 3 Zrotation Xrotation Yrotation
              End Site
              {
                OFFSET 15 -0 -0
              }
            }
          }
        }
      }
    }
  }
}
MOTION
Frames: 17
Frame Time: 0.0416666666667
1469.466 97.2586 2246.87 2.156683 -1.102008 59.58277 2.060838 21.1906 1.024427 -0 16.52258 -0 -7.487428 -12.27838 1.095613 0.2070315 -26.37869 -5.596128 -0 8.795645 -0 -1.518674 -5.561296 20.3642 -2.055177 -1.229734 6.892768 -0.08010034 8.132132 -3.314602 1.292395 23.07673 4.866513 2.161853 -19.86979 5.923876 0.1633905 -22.07566 10.06912 80.00222 29.33976 -3.30825 -0 0 20.22696 -21.84149 6.143067 16.05797 4.342341 -16.21729 -0.9262855 -93.87388 22.93046 25.68483 0 0 -7.745114 1.737898 9.968669 11.89645
1476.42 97.08468 2249.612 3.243645 -0.6523231 59.48391 0.3164832 21.43125 1.943619 -0 26.38278 -0 -7.207978 -4.597857 0.8989799 -2.361736 -23.00868 -7.271581 -0 12.93916 -0 -0.9972428 -6.208354 20.29604 -3.067543 -1.895599 7.080837 -0.4370979 8.809512 -3.09275 1.744815 22.98491 4.72641 2.226169 -20.28299 6.220125 0.2363032 -21.60203 9.998229 81.93539 28.10818 -4.956094 -0 0 18.68562 -22.40325 5.864836 16.09157 3.817989 -16.08871 -1.225452 -93.72538 22.99135 25.97723 0 0 -6.96086 1.292689 9.450966 12.76926
1483.481 97.8322 2252.389 4.587234 -0.3294976 59.93092 -1.096542 19.20179 2.802532 -0 38.0621 -0 -7.525937 3.939415 0.3295496 -4.695654 -18.39621 -8.560227 -0 17.52034 -0 0.100848 -7.353346 20.06291 -4.147064 -2.260544 6.84498 -0.6597856 9.89306 -3.226252 1.992499 22.94042 4.654315 2.2885 -20.837 6.361011 0.5658223 -21.02683 10.26453 84.39175 27.29125 -7.422897 -0 0 16.36191 -22.57089 5.742614 15.87647 3.162253 -16.60464 -1.875585 -92.87828 23.11317 25.49399 0 0 -7.422974 1.178635 9.001351 13.36859
1490.165 99.29503 2255.011 5.813309 -0.358915 60.89613 -1.702273 14.46102 3.187778 -0 49.03437 -0 -8.097232 10.25371 -0.5304341 -6.216515 -12.92464 -9.393886 -0 19.88108 -0 1.234543 -8.841612 19.59019 -4.837976 -2.19962 6.038368 -0.663125 10.93667 -3.791557 1.923202 23.02756 4.732717 2.266729 -21.24857 6.36579 0.9931376 -20.46364 10.72012 86.81687 26.83059 -10.17031 -0 0 13.99274 -22.24564 5.752185 15.45188 2.54751 -17.55059 -2.793274 -91.45142 23.63813 24.11301 0 0 -9.206408 1.086204 8.899527 13.90988
1496.13 101.032 2257.323 6.71693 -0.8369445 62.19291 -1.445003 8.011046 3.092251 -0 56.65148 -0 -8.36495 12.40381 -1.670698 -6.771214 -7.15284 -10.06717 -0 19.14655 -0 1.587156 -10.56065 18.88333 -4.804977 -1.693879 4.814431 -0.4995042 11.46055 -4.568172 1.676287 23.28872 4.939344 2.11105 -21.24217 6.407695 1.273114 -19.92415 11.0911 88.71789 26.25716 -12.55206 -0 0 12.34633 -21.45116 5.838726 14.80527 2.210248 -18.41626 -3.773861 -90.00857 24.77372 22.16094 0 0 -11.57914 0.5740794 9.298012 14.72312
1501.304 102.6024 2259.297 7.203223 -1.636672 63.57629 -0.5928971 0.6725977 2.768317 -0 59.46496 -0 -8.205911 10.8424 -2.950827 -6.544222 -1.504127 -10.79135 -0 16.47885 -0 0.8351773 -12.45907 17.9716 -4.080221 -0.8765441 3.465682 -0.2566637 11.32146 -5.29874 1.491246 23.64918 5.174 1.864565 -20.84284 6.63513 1.287061 -19.32611 11.19416 89.92481 25.32961 -14.30148 -0 0 11.57412 -20.30647 5.978985 13.91021 2.290142 -18.93973 -4.604364 -88.92202 26.36503 19.97951 0 0 -13.83716 -0.3397791 10.11804 15.75281
1505.846 103.7244 2261.041 7.139605 -2.435754 64.83918 0.5120786 -7.082187 2.40656 -0 57.15735 -0 -7.942518 7.394616 -4.05975 -5.882136 3.778621 -11.55227 -0 13.6479 -0 -0.6543409 -14.55154 16.88895 -3.033643 0.008258937 2.266525 0.05614788 10.69957 -5.905455 1.496782 23.95132 5.362559 1.662191 -20.35556 7.037529 1.152194 -18.57761 11.03468 90.53782 24.40213 -15.66454 -0 0 11.24587 -18.92735 6.222358 12.75055 2.777995 -19.29016 -5.150255 -88.14368 28.03968 17.69758 0 0 -15.89761 -1.185882 11.19082 16.56032
1510.033 104.2862 2262.718 6.38623 -2.875143 65.87111 1.582217 -14.76359 2.053842 -0 50.20243 -0 -7.816211 3.824957 -4.728453 -5.158572 8.394931 -12.23091 -0 11.77712 -0 -2.260695 -16.84818 15.6938 -2.113347 0.7124813 1.449666 0.4648509 9.864892 -6.414018 1.673466 24.03677 5.495241 1.635126 -20.13612 7.497637 1.070915 -17.69913 10.73083 90.72006 24.02242 -17.00613 -0 0 10.90582 -17.41875 6.612949 11.38145 3.567534 -19.74171 -5.353737 -87.5293 29.45429 15.48321 0 0 -18.01973 -1.530934 12.32665 16.77535
1514.168 104.2814 2264.466 5.028268 -2.772459 66.6848 2.413341 -21.63849 1.655754 -0 40.09009 -0 -7.769379 1.210058 -4.881613 -4.66359 11.98136 -12.65041 -0 11.03512 -0 -3.517033 -19.22812 14.46106 -1.596249 1.103558 1.136076 0.9379679 9.0399 -6.824876 1.931455 23.84897 5.569283 1.780234 -20.33816 7.89526 1.093424 -16.83492 10.40541 90.68077 24.2977 -18.44082 -0 0 10.37782 -15.94734 7.078364 9.99499 4.496911 -20.38034 -5.24849 -86.98937 30.36508 13.56863 0 0 -20.35892 -1.261632 13.26959 16.339
1518.499 103.7237 2266.365 3.554449 -2.22084 67.38494 2.806469 -26.92777 1.021403 -0 29.04028 -0 -7.638946 -0.188681 -4.697738 -4.528639 14.44018 -12.57261 -0 10.9456 -0 -4.268177 -21.42938 13.21632 -1.52087 1.213499 1.228909 1.36393 8.347006 -7.092248 2.195758 23.52591 5.519879 1.92493 -20.72101 8.138816 1.021944 -16.08491 10.11776 90.71957 24.65536 -19.80721 -0 0 9.613065 -14.80053 7.43072 8.876821 5.39598 -21.11899 -4.997631 -86.26382 30.59365 11.77724 0 0 -22.8813 -0.504366 13.79003 15.34308
1523.21 102.5982 2268.469 2.723889 -1.456622 68.08869 2.492653 -30.0274 -0.1874403 -0 18.90148 -0 -7.377252 -0.8116892 -4.557919 -4.743669 16.19063 -11.77776 -0 10.98013 -0 -4.61849 -23.18167 11.91234 -1.820216 1.151629 1.448601 1.60582 7.776429 -7.16058 2.45151 23.38171 5.212932 1.834726 -20.68286 8.140968 0.5451743 -15.31881 9.849985 91.13341 24.18966 -20.8817 -0 0 8.411738 -14.28896 7.477795 8.215046 6.151564 -21.86008 -4.846236 -84.82327 30.00567 9.251347 0 0 -25.49335 0.5950341 13.87424 13.74069
1528.409 100.9681 2270.842 3.063067 -0.726564 68.84292 1.593148 -30.52276 -1.846105 -0 11.12996 -0 -7.125127 -1.611574 -4.910953 -5.16025 18.02196 -10.40343 -0 11.429 -0 -4.709919 -24.10005 10.77959 -2.377372 0.9197219 1.478388 1.618485 7.218181 -7.031529 2.717713 23.70988 4.566932 1.419549 -19.67611 7.870144 -0.3472922 -14.21345 9.562998 91.96697 22.60709 -21.56414 -0 0 6.518951 -14.28853 7.170632 7.792769 6.68269 -22.45984 -4.904276 -82.55966 28.64722 5.350302 0 0 -27.69725 1.937965 13.82742 11.36919
1534.047 99.35277 2273.505 3.884789 -0.5207051 69.5266 1.630861 -28.92379 -2.288907 -0 8.555222 -0 -7.418851 -3.181768 -5.849203 -5.210635 20.12384 -9.435873 -0 14.81012 -0 -4.662773 -23.13103 10.63806 -2.627579 0.4312504 1.121426 1.605517 6.717363 -6.893105 2.924764 24.32175 3.916062 1.033818 -18.23928 7.550184 -0.7439675 -12.73321 9.332809 92.58979 21.65869 -21.92311 -0 0 4.379085 -13.76441 6.892614 6.921173 6.772867 -22.52188 -4.86695 -81.04459 27.22803 1.941345 0 0 -27.68924 3.405133 14.15822 8.576642
1539.854 98.62833 2276.327 3.568005 -1.242809 69.88873 3.791785 -26.70126 -0.3773436 -0 12.32366 -0 -8.669755 -4.676838 -6.412065 -4.346202 20.36826 -9.765759 -0 23.84908 -0 -4.815012 -19.44354 11.4148 -1.795029 -0.1051437 0.7812648 1.798984 6.698632 -6.941127 2.854625 24.48536 3.946011 1.213807 -18.08237 7.5232 0.2907623 -11.80187 9.374238 92.16074 23.62836 -21.99703 -0 0 3.481597 -12.23701 7.275984 5.653294 6.215386 -21.86084 -4.39808 -82.21464 26.69669 2.810033 0 0 -24.4012 4.750017 14.81844 6.641989
1545.564 98.94319 2279.08 2.66575 -2.151722 69.85572 6.012548 -23.58201 1.710079 -0 17.06386 -0 -10.04341 -5.891116 -5.992805 -3.411618 17.11554 -10.44527 -0 35.5969 -0 -5.028367 -14.74714 11.98424 -0.5619137 -0.362291 1.148529 1.971394 7.263531 -6.961535 2.568843 24.24231 4.445755 1.728916 -18.97527 7.651121 1.748371 -12.01573 9.702607 91.12603 26.82945 -21.61287 -0 0 4.171918 -11.16202 8.152606 5.009402 5.373928 -21.10721 -3.889925 -84.84291 26.44395 6.870865 0 0 -20.46288 5.728264 15.21519 5.91347
1551.079 99.89255 2281.641 2.451288 -2.622641 69.51218 6.852524 -19.25468 2.568127 -0 19.21751 -0 -10.92852 -7.265265 -5.228041 -3.003662 11.84509 -10.60056 -0 46.01606 -0 -4.911752 -10.86419 12.27304 0.1332109 -0.3201808 2.075664 1.934207 8.045296 -6.777316 2.311412 24.09325 4.813677 2.172135 -19.59756 7.628676 2.675237 -12.77848 10.13579 90.12794 29.16447 -20.79166 -0 0 5.422151 -11.18257 9.041928 5.091551 4.681638 -20.68205 -3.689227 -87.02127 25.85436 10.69239 0 0 -17.65254 6.410523 15.29921 5.576132
1556.327 101.1288 2284.002 2.991674 -2.686555 68.94676 6.68581 -14.12211 2.554442 -0 19.0304 -0 -11.36065 -8.806818 -4.528916 -2.875773 5.782827 -10.28873 -0 53.83734 -0 -4.561324 -8.126776 12.58287 0.1961464 -0.03637172 3.191914 1.733722 8.772939 -6.390985 2.138521 24.14501 4.93399 2.495652 -19.65706 7.384205 3.136155 -13.62205 10.57852 89.14126 30.59364 -19.56335 -0 0 6.737492 -11.89674 9.775981 5.563163 4.225865 -20.46886 -3.72427 -88.49069 25.13945 13.44411 0 0 -15.70016 6.797211 15.23836 5.360757
